<svg xmlns="http://www.w3.org/2000/svg" viewBox="0 0 220 220"><defs><style>.cls-1{fill:#63707e;}.cls-2{fill:#e28d98;}.cls-3{fill:#ffd250;}.cls-4{fill:#44bba4;}</style></defs><g id="Layer_2" data-name="Layer 2"><g id="Layer_1-2" data-name="Layer 1"><circle class="cls-1" cx="110" cy="110" r="110"/><path class="cls-2" d="M129.93,190.24v.22a8,8,0,0,1-6.77,7.91,90.71,90.71,0,0,1-26.46,0,8,8,0,0,1-6.77-7.91v-.22a16,16,0,0,1,16.76-16c1.07.05,2.15.08,3.24.08s2.17,0,3.24-.08A16,16,0,0,1,129.93,190.24Z"/><path class="cls-3" d="M139.93,42.56V36.67a8,8,0,0,1,11.8-7,90.39,90.39,0,0,1,37.92,37.91,8,8,0,0,1-7.05,11.8h-5.89a16,16,0,0,1-13.23-6.82,65.22,65.22,0,0,0-16.73-16.73A16,16,0,0,1,139.93,42.56Z"/><path class="cls-3" d="M79.93,176.12V182a8,8,0,0,1-11.8,7,90.47,90.47,0,0,1-37.92-37.92,8,8,0,0,1,7-11.8h5.89a16,16,0,0,1,13.23,6.82,65.22,65.22,0,0,0,16.73,16.73A16,16,0,0,1,79.93,176.12Z"/><path class="cls-4" d="M174.93,109.34c0-1.08,0-2.16-.08-3.24a16,16,0,0,1,16-16.76h.23A8,8,0,0,1,199,96.11a90.1,90.1,0,0,1-47.32,93,8,8,0,0,1-11.71-7.1v-6a15.8,15.8,0,0,1,6.77-13.07A64.89,64.89,0,0,0,174.93,109.34Z"/><path class="cls-4" d="M44.93,109.69c0,1.08,0,2.16.08,3.23a16,16,0,0,1-16,16.77h-.23a8,8,0,0,1-7.91-6.78,90.09,90.09,0,0,1,47.32-93A8,8,0,0,1,79.93,37v6A15.82,15.82,0,0,1,73.16,56.1,64.91,64.91,0,0,0,44.93,109.69Z"/></g></g></svg>