<svg  viewBox="0 0 303 296" fill="none" xmlns="http://www.w3.org/2000/svg">
<path d="M224.9 34.4C194.5 13.2 157.3 -1.59999 119.7 1.10001C100.1 2.50001 81.8 8.9 65.3 19.5C53 27.4 37.2 34.4 27 44.9C18.4 53.8 13.1 68.2 9.09998 79.7C0.0999756 105.1 -2.4 133 3.5 159.4C14.4 208 51.8 245.2 101.8 249.8C166.3 255.8 236.6 220.6 261.7 159C280.6 112.7 265.6 62.6 224.9 34.4Z" fill="#EFCFD0"/>
<path d="M234.328 2.06609C213.928 6.16609 195.128 21.666 189.228 41.966C185.628 54.566 186.228 67.566 192.228 79.266C193.028 80.866 193.928 82.366 194.828 83.766C196.928 88.366 199.828 92.566 203.228 96.266C212.528 106.366 224.027 112.066 237.627 113.966C258.927 116.866 282.228 106.066 293.828 88.1661C299.028 80.1661 302.327 69.7661 302.627 60.1661C303.127 46.0661 298.628 33.966 290.328 22.766C278.028 5.86604 254.628 -2.03391 234.328 2.06609Z" fill="#F5A883"/>
<path d="M239.561 136.419C233.861 132.519 227.461 129.419 221.161 126.719C215.161 124.119 208.761 123.019 202.261 121.919C198.961 121.319 195.661 121.019 192.361 121.119C186.061 121.219 179.361 121.519 173.061 122.919C159.861 126.019 149.661 131.219 138.861 139.119C133.861 142.819 129.861 147.819 125.861 152.519C123.561 155.319 121.561 158.219 119.961 161.419C114.261 172.619 110.161 183.819 109.661 196.619C109.361 204.819 110.161 212.519 112.061 220.019C111.961 221.419 111.961 222.819 111.961 224.319C111.861 241.119 116.361 256.019 126.461 269.519C134.061 279.719 145.561 286.819 157.261 291.319C179.061 299.619 204.561 295.519 224.761 284.819C234.561 279.619 244.161 273.219 252.461 265.919C263.261 256.319 270.961 245.419 276.861 232.419C282.161 220.719 283.061 207.519 281.561 194.819C280.061 181.419 272.861 168.819 264.461 158.519C257.361 150.219 248.561 142.619 239.561 136.419Z" fill="#B7C06F"/>
</svg>
